<svg width="472.98125px" height="168.2px" xmlns="http://www.w3.org/2000/svg" viewBox="13.509375000000006 -9.099999999999994 472.98125 168.2" style="background: rgba(0, 0, 0, 0);" preserveAspectRatio="xMidYMid"><defs>
  <filter id="editing-scratch" x="-100%" y="-100%" width="300%" height="300%">
    <!-- COLOR -->
    <feFlood flood-color="#ddd" flood-opacity="0.75" result="COLOR-blu"></feFlood>
    <feFlood flood-color="#666" flood-opacity="0.4" result="COLOR-red"></feFlood>
    <!-- COLOR END -->

    <!-- Texture -->
    <feTurbulence baseFrequency=".05" type="fractalNoise" numOctaves="3" seed="0" result="Texture_10"></feTurbulence>
    <feColorMatrix type="matrix" values="0 0 0 0 0,
    0 0 0 0 0,
    0 0 0 0 0,
    0 0 0 -2.1 1.1" in="Texture_10" result="Texture_20"></feColorMatrix>

    <feColorMatrix result="Texture_30" type="matrix" values="0 0 0 0 0,
    0 0 0 0 0,
    0 0 0 0 0,
    0 0 0 -1.7 1.8" in="Texture_10"></feColorMatrix>
    <!-- Texture -->

    <!-- FILL -->
    <feOffset dx="-3" dy="4" in="SourceAlpha" result="FILL_10"></feOffset>
    <feDisplacementMap scale="17" in="FILL_10" in2="Texture_10" result="FILL_20"></feDisplacementMap>
    <feComposite operator="in" in="Texture_30" in2="FILL_20" result="FILL_40"></feComposite>
    <feComposite operator="in" in="COLOR-blu" in2="FILL_40" result="FILL_50"></feComposite>
    <!-- FILL END-->

    <!-- OUTLINE -->
    <feMorphology operator="dilate" radius="3" in="SourceGraphic" result="OUTLINE_10"></feMorphology>
    <feComposite operator="out" in="OUTLINE_10" in2="SourceGraphic" result="OUTLINE_20"></feComposite>
    <feDisplacementMap scale="7" in="OUTLINE_20" in2="Texture_10" result="OUTLINE_30"></feDisplacementMap>
    <feComposite operator="arithmetic" k2="-1" k3="1" in="Texture_20" in2="OUTLINE_30" result="OUTLINE_40"></feComposite>
    <!-- OUTLINE END-->

    <!-- BEVEL OUTLINE -->
    <feConvolveMatrix order="8,8" divisor="1" kernelMatrix="1 0 0 0 0 0 0 0 0 1 0 0 0 0 0 0 0 0 1 0 0 0 0 0 0 0 0 1 0 0 0 0 0 0 0 0 1 0 0 0 0 0 0 0 0 1 0 0 0 0 0 0 0 0 1 0 0 0 0 0 0 0 0 1 " in="SourceGraphic" result="BEVEL_10"></feConvolveMatrix>
    <feMorphology operator="dilate" radius="2" in="BEVEL_10" result="BEVEL_20"></feMorphology>
    <feComposite operator="out" in="BEVEL_20" in2="BEVEL_10" result="BEVEL_30"></feComposite>
    <feDisplacementMap scale="7" in="BEVEL_30" in2="Texture_10" result="BEVEL_40"></feDisplacementMap>
    <feComposite operator="arithmetic" k2="-1" k3="1" in="Texture_20" in2="BEVEL_40" result="BEVEL_50"></feComposite>
    <feOffset dx="-7" dy="-7" in="BEVEL_50" result="BEVEL_60"></feOffset>
    <feComposite operator="out" in="BEVEL_60" in2="OUTLINE_10" result="BEVEL_70"></feComposite>
    <!-- BEVEL OUTLINE END -->

    <!-- BEVEL FILL -->
    <feOffset dx="-9" dy="-9" in="BEVEL_10" result="BEVEL-FILL_10"></feOffset>
    <feComposite operator="out" in="BEVEL-FILL_10" in2="OUTLINE_10" result="BEVEL-FILL_20"></feComposite>
    <feDisplacementMap scale="17" in="BEVEL-FILL_20" in2="Texture_10" result="BEVEL-FILL_30"></feDisplacementMap>
    <feComposite operator="in" in="COLOR-red" in2="BEVEL-FILL_30" result="BEVEL-FILL_50"></feComposite> <!-- -->
    <!-- BEVEL FILL END-->

    <feMerge result="merge2">
     <feMergeNode in="BEVEL-FILL_50"></feMergeNode>
     <feMergeNode in="BEVEL_70"></feMergeNode>
     <feMergeNode in="FILL_50"></feMergeNode>
      <feMergeNode in="OUTLINE_40"></feMergeNode>
    </feMerge>
  </filter>
</defs>
<g filter="url(#editing-scratch)"><g transform="translate(81.84498405456543, 103.35000038146973)"><path d="M30.13-55.73L30.13-55.73Q59.37-55.73 59.37-27.86L59.37-27.86L59.37-27.86Q59.37 0 30.13 0L30.13 0L5.99 0L5.99-55.73L30.13-55.73ZM23.89-42.36L23.89-13.37L29.81-13.37L29.81-13.37Q41.07-13.37 41.07-25.43L41.07-25.43L41.07-30.29L41.07-30.29Q41.07-42.36 29.81-42.36L29.81-42.36L23.89-42.36ZM89.02-43.74L89.02-43.74Q98.82-43.74 104.98-40.46L104.98-40.46L104.98-40.46Q111.13-37.18 111.13-29.81L111.13-29.81L111.13-13.12L111.13-13.12Q111.13-11.75 111.78-10.85L111.78-10.85L111.78-10.85Q112.43-9.96 113.72-9.96L113.72-9.96L116.64-9.96L116.64-0.65L116.64-0.65Q116.40-0.49 115.38-0.12L115.38-0.12L115.38-0.12Q114.37 0.24 112.51 0.61L112.51 0.61L112.51 0.61Q110.65 0.97 108.22 0.97L108.22 0.97L108.22 0.97Q103.52 0.97 100.48-0.45L100.48-0.45L100.48-0.45Q97.44-1.86 96.31-4.37L96.31-4.37L96.31-4.37Q93.23-1.94 89.42-0.49L89.42-0.49L89.42-0.49Q85.62 0.97 80.51 0.97L80.51 0.97L80.51 0.97Q65.45 0.97 65.45-11.02L65.45-11.02L65.45-11.02Q65.45-17.25 68.81-20.53L68.81-20.53L68.81-20.53Q72.17-23.81 78.49-25.03L78.49-25.03L78.49-25.03Q84.81-26.24 95.01-26.24L95.01-26.24L95.01-28.35L95.01-28.35Q95.01-30.86 93.27-32.16L93.27-32.16L93.27-32.16Q91.53-33.45 88.78-33.45L88.78-33.45L88.78-33.45Q86.27-33.45 84.44-32.56L84.44-32.56L84.44-32.56Q82.62-31.67 82.62-29.73L82.62-29.73L82.62-29.40L66.74-29.40L66.74-29.40Q66.66-29.81 66.66-30.54L66.66-30.54L66.66-30.54Q66.66-36.61 72.45-40.18L72.45-40.18L72.45-40.18Q78.25-43.74 89.02-43.74L89.02-43.74ZM95.01-18.63L95.01-18.63Q88.13-18.63 84.85-17.13L84.85-17.13L84.85-17.13Q81.57-15.63 81.57-13.12L81.57-13.12L81.57-13.12Q81.57-9.07 87.08-9.07L87.08-9.07L87.08-9.07Q90.23-9.07 92.62-10.77L92.62-10.77L92.62-10.77Q95.01-12.47 95.01-14.99L95.01-14.99L95.01-18.63ZM151.39-43.74L151.39-43.74Q158.84-43.74 162.57-39.61L162.57-39.61L162.57-39.61Q166.29-35.48 166.29-27.70L166.29-27.70L166.29 0L150.17 0L150.17-25.76L150.17-25.76Q150.17-28.51 148.76-30.17L148.76-30.17L148.76-30.17Q147.34-31.83 144.75-31.83L144.75-31.83L144.75-31.83Q141.75-31.83 139.89-29.89L139.89-29.89L139.89-29.89Q138.02-27.95 138.02-25.11L138.02-25.11L138.02 0L121.91 0L121.91-42.77L135.11-42.77L136.16-36.29L136.16-36.29Q138.67-39.69 142.76-41.72L142.76-41.72L142.76-41.72Q146.85-43.74 151.39-43.74L151.39-43.74ZM195.37-42.77L204.44-42.77L204.44-31.83L195.37-31.83L195.37-15.55L195.37-15.55Q195.37-12.64 196.34-11.30L196.34-11.30L196.34-11.30Q197.32-9.96 199.91-9.96L199.91-9.96L204.44-9.96L204.44-0.49L204.44-0.49Q202.50 0.16 199.42 0.57L199.42 0.57L199.42 0.57Q196.34 0.97 194.08 0.97L194.08 0.97L194.08 0.97Q186.95 0.97 183.10-1.62L183.10-1.62L183.10-1.62Q179.25-4.21 179.25-10.45L179.25-10.45L179.25-31.83L173.26-31.83L173.26-42.77L179.90-42.77L183.38-55.73L195.37-55.73L195.37-42.77ZM234.01-43.74L234.01-43.74Q245.75-43.74 251.95-38.23L251.95-38.23L251.95-38.23Q258.15-32.72 258.15-21.38L258.15-21.38L258.15-18.63L226.07-18.63L226.07-18.63Q226.07-14.01 228.14-11.66L228.14-11.66L228.14-11.66Q230.20-9.31 234.66-9.31L234.66-9.31L234.66-9.31Q238.71-9.31 240.61-11.02L240.61-11.02L240.61-11.02Q242.51-12.72 242.51-15.55L242.51-15.55L258.15-15.55L258.15-15.55Q258.15-7.78 252.23-3.40L252.23-3.40L252.23-3.40Q246.32 0.97 234.98 0.97L234.98 0.97L234.98 0.97Q223.07 0.97 216.51-4.58L216.51-4.58L216.51-4.58Q209.95-10.13 209.95-21.38L209.95-21.38L209.95-21.38Q209.95-32.40 216.35-38.07L216.35-38.07L216.35-38.07Q222.75-43.74 234.01-43.74L234.01-43.74ZM234.66-33.45L234.66-33.45Q227.04-33.45 226.15-26.24L226.15-26.24L241.87-26.24L241.87-26.24Q241.87-29.57 239.96-31.51L239.96-31.51L239.96-31.51Q238.06-33.45 234.66-33.45L234.66-33.45ZM278.88-43.82L275.00-32.24L269.49-32.24L265.68-43.82L265.68-55.73L278.88-55.73L278.88-43.82ZM308.77-43.74L308.77-43.74Q317.36-43.74 323.31-40.38L323.31-40.38L323.31-40.38Q329.27-37.02 329.27-29.97L329.27-29.97L314.28-29.97L314.28-29.97Q314.28-32.32 312.17-33.29L312.17-33.29L312.17-33.29Q310.72-34.10 308.53-34.10L308.53-34.10L308.53-34.10Q302.70-34.10 302.70-31.35L302.70-31.35L302.70-31.35Q302.70-29.81 304.72-29.16L304.72-29.16L304.72-29.16Q306.75-28.51 311.36-27.78L311.36-27.78L311.36-27.78Q317.03-26.97 320.84-25.88L320.84-25.88L320.84-25.88Q324.65-24.79 327.48-21.99L327.48-21.99L327.48-21.99Q330.32-19.20 330.32-14.18L330.32-14.18L330.32-14.18Q330.32-5.99 324.20-2.51L324.20-2.51L324.20-2.51Q318.09 0.97 308.21 0.97L308.21 0.97L308.21 0.97Q302.54 0.97 297.51-0.61L297.51-0.61L297.51-0.61Q292.49-2.19 289.33-5.51L289.33-5.51L289.33-5.51Q286.17-8.83 286.17-13.93L286.17-13.93L301.16-13.93L301.16-13.61L301.16-13.61Q301.24-10.85 303.47-9.76L303.47-9.76L303.47-9.76Q305.69-8.67 308.21-8.67L308.21-8.67L308.21-8.67Q314.93-8.67 314.93-11.83L314.93-11.83L314.93-11.83Q314.93-13.45 312.82-14.18L312.82-14.18L312.82-14.18Q310.72-14.90 305.94-15.71L305.94-15.71L305.94-15.71Q300.19-16.69 296.50-17.82L296.50-17.82L296.50-17.82Q292.81-18.95 290.06-21.67L290.06-21.67L290.06-21.67Q287.31-24.38 287.31-29.24L287.31-29.24L287.31-29.24Q287.31-37.10 293.26-40.42L293.26-40.42L293.26-40.42Q299.21-43.74 308.77-43.74L308.77-43.74Z" fill="#000"></path></g></g><style>text {
  font-size: 64px;
  font-family: Arial Black;
  dominant-baseline: central;
  text-anchor: middle;
}</style></svg>