<svg xmlns="http://www.w3.org/2000/svg" id="canvas" speechify-initial-font-family="&quot;Open Sans&quot;, sans-serif" speechify-initial-font-size="16px" viewBox="407.158 374.547 717.074 163.951"><path d="M 432.80,394.84 C 432.17 396.23, 432.29 397.75, 432.02 401.80 C 431.74 405.86, 431.65 408.77, 431.42 415.12 C 431.20 421.46, 431.07 425.97, 430.91 433.53 C 430.74 441.10, 430.59 445.46, 430.61 452.94 C 430.63 460.42, 430.83 464.20, 431.02 470.94 C 431.21 477.67, 431.32 481.14, 431.57 486.60 C 431.83 492.07, 432.07 494.30, 432.31 498.26 C 432.54 502.23, 432.39 503.87, 432.76 506.43 C 433.13 508.99, 433.53 510.16, 434.16 511.06 C 434.80 511.97, 435.44 511.93, 435.96 510.95 C 436.48 509.97, 436.75 508.75, 436.77 506.15 C 436.78 503.55, 436.49 501.89, 436.05 497.94 C 435.61 493.99, 435.05 491.82, 434.57 486.40 C 434.09 480.98, 433.93 477.53, 433.65 470.84 C 433.37 464.15, 433.16 460.39, 433.19 452.94 C 433.21 445.50, 433.46 441.15, 433.78 433.62 C 434.09 426.09, 434.36 421.61, 434.77 415.28 C 435.18 408.95, 435.74 406.06, 435.83 401.97 C 435.92 397.89, 435.81 396.30, 435.20 394.87 C 434.60 393.45, 433.44 393.46, 432.80 394.84" style="stroke: white; fill: white;"/><path d="M 412.06,396.11 C 413.40 395.83, 414.37 394.57, 416.96 392.85 C 419.55 391.13, 420.93 389.64, 425.01 387.53 C 429.08 385.42, 431.55 383.76, 437.32 382.30 C 443.08 380.84, 446.63 380.36, 453.81 380.22 C 461.00 380.09, 465.29 380.23, 473.26 381.63 C 481.23 383.02, 485.69 384.23, 493.67 387.21 C 501.64 390.18, 505.70 392.23, 513.13 396.50 C 520.57 400.76, 524.37 403.40, 530.83 408.55 C 537.29 413.70, 540.54 416.57, 545.44 422.25 C 550.34 427.94, 552.49 431.03, 555.33 436.97 C 558.17 442.92, 559.18 446.11, 559.63 451.97 C 560.08 457.84, 559.75 460.65, 557.58 466.30 C 555.40 471.96, 553.49 474.80, 548.75 480.26 C 544.00 485.71, 540.75 488.52, 533.85 493.59 C 526.96 498.66, 522.85 501.15, 514.29 505.61 C 505.73 510.07, 500.47 512.21, 491.06 515.87 C 481.66 519.53, 476.05 521.26, 467.28 523.89 C 458.50 526.53, 454.20 527.49, 447.19 529.04 C 440.18 530.59, 436.80 531.03, 432.25 531.65 C 427.71 532.27, 426.30 531.92, 424.47 532.15 C 422.64 532.39, 422.66 533.11, 423.12 532.82 C 423.58 532.53, 426.39 531.58, 426.76 530.72 C 427.13 529.86, 426.03 528.21, 424.96 528.51 C 423.90 528.80, 421.58 530.86, 421.44 532.21 C 421.30 533.56, 422.02 534.77, 424.27 535.26 C 426.53 535.75, 428.02 535.45, 432.71 534.66 C 437.40 533.86, 440.69 533.05, 447.72 531.28 C 454.75 529.51, 459.05 528.52, 467.86 525.80 C 476.67 523.07, 482.29 521.33, 491.75 517.64 C 501.22 513.96, 506.52 511.82, 515.19 507.36 C 523.87 502.90, 528.06 500.44, 535.13 495.34 C 542.20 490.23, 545.58 487.46, 550.54 481.83 C 555.50 476.21, 557.61 473.23, 559.94 467.22 C 562.26 461.21, 562.64 458.04, 562.15 451.78 C 561.67 445.52, 560.50 442.13, 557.49 435.93 C 554.49 429.73, 552.20 426.60, 547.13 420.79 C 542.06 414.98, 538.74 412.11, 532.15 406.89 C 525.56 401.67, 521.72 399.03, 514.17 394.69 C 506.63 390.35, 502.53 388.26, 494.43 385.19 C 486.33 382.12, 481.80 380.86, 473.68 379.33 C 465.55 377.80, 461.22 377.60, 453.80 377.55 C 446.38 377.51, 442.70 377.86, 436.59 379.11 C 430.47 380.36, 427.73 381.84, 423.24 383.81 C 418.74 385.78, 416.69 386.85, 414.09 388.95 C 411.50 391.04, 410.66 392.85, 410.26 394.28 C 409.85 395.71, 410.72 396.40, 412.06 396.11" style="stroke: white; fill: white;"/><path d="M 663.70,462.20 C 663.94 460.74, 663.54 458.70, 662.35 456.17 C 661.16 453.63, 660.29 452.02, 657.76 449.53 C 655.23 447.04, 653.48 445.28, 649.70 443.72 C 645.93 442.16, 643.78 441.58, 638.89 441.71 C 633.99 441.84, 631.14 442.09, 625.22 444.38 C 619.31 446.67, 615.53 448.64, 609.31 453.17 C 603.09 457.69, 599.53 461.06, 594.13 467.02 C 588.72 472.97, 585.88 476.75, 582.29 482.94 C 578.70 489.12, 577.16 492.50, 576.18 497.95 C 575.19 503.40, 575.61 506.04, 577.37 510.18 C 579.13 514.33, 581.07 516.12, 584.98 518.67 C 588.89 521.22, 591.68 522.07, 596.91 522.92 C 602.15 523.78, 605.29 523.71, 611.16 522.94 C 617.03 522.16, 620.48 521.40, 626.28 519.05 C 632.07 516.69, 635.05 514.99, 640.13 511.14 C 645.22 507.30, 647.56 504.84, 651.71 499.82 C 655.85 494.80, 657.93 491.69, 660.87 486.05 C 663.81 480.40, 664.82 476.87, 666.40 471.59 C 667.98 466.31, 668.78 463.24, 668.79 459.65 C 668.80 456.06, 667.99 454.47, 666.46 453.63 C 664.93 452.78, 662.79 453.21, 661.14 455.43 C 659.49 457.65, 658.89 460.29, 658.23 464.73 C 657.57 469.18, 657.49 472.52, 657.83 477.66 C 658.16 482.81, 658.60 485.76, 659.90 490.45 C 661.19 495.13, 662.30 497.52, 664.31 501.08 C 666.31 504.65, 667.32 505.94, 669.92 508.29 C 672.52 510.63, 674.17 511.72, 677.31 512.81 C 680.45 513.90, 682.45 514.08, 685.61 513.76 C 688.77 513.44, 690.36 512.74, 693.12 511.20 C 695.87 509.66, 697.17 508.26, 699.39 506.07 C 701.60 503.89, 702.72 503.06, 704.20 500.26 C 705.69 497.46, 706.91 494.00, 706.82 492.06 C 706.73 490.12, 705.29 489.55, 703.75 490.55 C 702.22 491.55, 700.86 494.80, 699.14 497.05 C 697.43 499.30, 696.98 500.01, 695.17 501.79 C 693.35 503.57, 692.12 504.70, 690.06 505.96 C 688.01 507.23, 687.13 507.77, 684.91 508.13 C 682.68 508.48, 681.33 508.41, 678.94 507.73 C 676.55 507.05, 675.15 506.48, 672.95 504.73 C 670.75 502.98, 669.77 502.05, 667.95 498.99 C 666.13 495.92, 664.97 493.69, 663.85 489.38 C 662.73 485.08, 662.44 482.24, 662.33 477.46 C 662.21 472.68, 662.71 469.49, 663.28 465.46 C 663.84 461.44, 664.74 459.46, 665.16 457.34 C 665.58 455.22, 665.49 454.45, 665.37 454.86 C 665.26 455.26, 665.05 456.20, 664.60 459.37 C 664.15 462.53, 664.40 465.62, 663.13 470.69 C 661.86 475.76, 660.98 479.25, 658.26 484.72 C 655.54 490.19, 653.51 493.21, 649.55 498.04 C 645.58 502.87, 643.30 505.22, 638.42 508.86 C 633.54 512.51, 630.69 514.08, 625.16 516.24 C 619.63 518.41, 616.29 519.05, 610.76 519.70 C 605.22 520.35, 602.26 520.28, 597.47 519.49 C 592.69 518.70, 590.27 517.87, 586.83 515.76 C 583.39 513.64, 581.83 512.38, 580.26 508.91 C 578.69 505.45, 578.10 503.38, 578.96 498.44 C 579.81 493.50, 581.11 490.17, 584.52 484.22 C 587.93 478.28, 590.72 474.49, 595.99 468.71 C 601.26 462.94, 604.82 459.64, 610.88 455.36 C 616.94 451.07, 620.70 449.26, 626.30 447.29 C 631.90 445.32, 634.61 445.35, 638.88 445.50 C 643.15 445.66, 644.72 446.46, 647.67 448.06 C 650.61 449.65, 651.66 451.25, 653.59 453.47 C 655.51 455.69, 655.77 457.18, 657.29 459.18 C 658.80 461.18, 659.87 462.88, 661.15 463.49 C 662.43 464.09, 663.46 463.67, 663.70 462.20" style="stroke: white; fill: white;"/><path d="M 716.58,447.28 C 715.81 447.80, 715.20 447.87, 714.71 449.93 C 714.22 451.98, 713.79 454.01, 714.14 457.55 C 714.48 461.10, 715.33 463.38, 716.43 467.63 C 717.53 471.88, 718.10 474.78, 719.65 478.81 C 721.20 482.84, 722.13 484.96, 724.17 487.78 C 726.22 490.60, 727.26 491.48, 729.87 492.91 C 732.48 494.35, 734.18 495.07, 737.21 494.97 C 740.24 494.87, 741.94 494.28, 745.03 492.41 C 748.11 490.55, 749.66 488.86, 752.64 485.64 C 755.63 482.42, 756.93 480.15, 759.93 476.30 C 762.93 472.46, 764.76 470.01, 767.63 466.40 C 770.51 462.80, 772.42 460.57, 774.31 458.27 C 776.20 455.97, 776.43 454.97, 777.08 454.90 C 777.73 454.82, 777.35 455.60, 777.57 457.89 C 777.78 460.17, 777.91 462.26, 778.16 466.32 C 778.42 470.38, 778.39 473.45, 778.84 478.21 C 779.29 482.97, 779.54 485.78, 780.41 490.13 C 781.27 494.47, 781.78 496.64, 783.16 499.93 C 784.53 503.23, 785.26 504.44, 787.29 506.60 C 789.33 508.76, 790.55 509.68, 793.32 510.74 C 796.09 511.80, 798.20 512.01, 801.14 511.89 C 804.09 511.77, 805.68 511.10, 808.04 510.13 C 810.41 509.17, 812.12 508.19, 812.96 507.05 C 813.79 505.91, 813.51 504.98, 812.23 504.43 C 810.95 503.87, 808.89 504.07, 806.58 504.27 C 804.27 504.47, 802.99 505.17, 800.67 505.43 C 798.34 505.70, 796.92 506.04, 794.93 505.61 C 792.95 505.17, 792.24 504.77, 790.75 503.27 C 789.27 501.77, 788.70 500.90, 787.50 498.10 C 786.30 495.30, 785.56 493.32, 784.75 489.26 C 783.95 485.21, 783.78 482.49, 783.49 477.84 C 783.19 473.19, 783.51 470.27, 783.27 466.02 C 783.03 461.76, 783.47 459.34, 782.29 456.58 C 781.10 453.81, 779.61 452.53, 777.32 452.19 C 775.04 451.85, 773.48 452.57, 770.85 454.88 C 768.22 457.18, 767.04 459.96, 764.19 463.72 C 761.33 467.48, 759.57 469.94, 756.60 473.67 C 753.62 477.41, 752.16 479.57, 749.29 482.40 C 746.43 485.24, 744.74 486.35, 742.26 487.85 C 739.79 489.35, 738.94 489.71, 736.93 489.89 C 734.92 490.07, 733.95 489.73, 732.22 488.73 C 730.49 487.73, 729.87 487.21, 728.28 484.88 C 726.68 482.55, 725.57 480.78, 724.25 477.10 C 722.93 473.41, 722.42 470.49, 721.69 466.47 C 720.95 462.44, 720.86 460.24, 720.57 456.95 C 720.27 453.67, 720.61 451.96, 720.21 450.04 C 719.81 448.13, 719.28 447.91, 718.55 447.36 C 717.83 446.81, 717.35 446.77, 716.58 447.28" style="stroke: white; fill: white;"/><path d="M 853.54,395.12 C 853.10 395.51, 852.76 394.94, 852.64 396.48 C 852.51 398.01, 852.35 398.99, 852.92 402.79 C 853.49 406.59, 854.62 409.47, 855.49 415.48 C 856.36 421.50, 856.56 425.67, 857.27 432.88 C 857.98 440.08, 858.47 444.27, 859.04 451.51 C 859.60 458.75, 859.65 462.49, 860.09 469.08 C 860.54 475.67, 860.68 478.82, 861.28 484.48 C 861.88 490.13, 862.32 492.79, 863.08 497.34 C 863.85 501.89, 864.24 503.88, 865.11 507.21 C 865.97 510.54, 866.47 512.07, 867.42 513.98 C 868.36 515.90, 868.89 516.26, 869.82 516.79 C 870.74 517.31, 871.50 516.93, 872.03 516.61 C 872.55 516.29, 872.73 515.44, 872.44 515.21 C 872.15 514.98, 870.82 515.29, 870.58 515.46 C 870.35 515.62, 870.96 516.05, 871.27 516.03 C 871.57 516.00, 871.99 516.08, 872.10 515.33 C 872.21 514.58, 872.35 514.16, 871.82 512.28 C 871.28 510.39, 870.50 509.04, 869.44 505.91 C 868.37 502.79, 867.54 501.00, 866.50 496.65 C 865.45 492.29, 864.94 489.68, 864.19 484.13 C 863.44 478.58, 863.25 475.45, 862.75 468.89 C 862.25 462.33, 862.19 458.57, 861.69 451.32 C 861.18 444.07, 860.72 439.88, 860.24 432.63 C 859.76 425.39, 859.67 421.21, 859.30 415.09 C 858.92 408.98, 858.85 405.94, 858.37 402.05 C 857.89 398.16, 857.63 397.16, 856.92 395.65 C 856.21 394.14, 855.49 394.61, 854.82 394.50 C 854.14 394.40, 853.98 394.72, 853.54 395.12" style="stroke: white; fill: white;"/><path d="M 832.71,477.50 C 833.62 477.84, 834.09 477.91, 836.20 477.35 C 838.32 476.78, 839.78 475.80, 843.29 474.66 C 846.80 473.53, 848.80 472.79, 853.76 471.67 C 858.73 470.55, 861.81 469.87, 868.11 469.04 C 874.42 468.22, 878.33 467.96, 885.29 467.55 C 892.24 467.15, 895.97 467.25, 902.89 467.03 C 909.81 466.80, 913.69 466.63, 919.89 466.45 C 926.10 466.27, 929.16 466.27, 933.92 466.15 C 938.68 466.03, 940.66 466.33, 943.69 465.84 C 946.72 465.34, 947.84 464.74, 949.05 463.68 C 950.27 462.61, 950.45 461.74, 949.76 460.51 C 949.07 459.28, 948.06 458.03, 945.62 457.51 C 943.18 456.99, 941.24 457.14, 937.56 457.92 C 933.87 458.70, 931.31 459.73, 927.18 461.43 C 923.04 463.12, 920.51 464.03, 916.88 466.39 C 913.25 468.74, 911.41 470.21, 909.04 473.20 C 906.66 476.18, 905.46 478.01, 905.00 481.32 C 904.53 484.63, 905.03 486.66, 906.71 489.75 C 908.40 492.85, 909.99 494.44, 913.41 496.78 C 916.84 499.12, 919.06 500.06, 923.82 501.45 C 928.58 502.83, 931.62 503.19, 937.21 503.72 C 942.79 504.24, 945.96 504.24, 951.75 504.06 C 957.53 503.87, 960.60 503.53, 966.15 502.78 C 971.69 502.02, 974.44 501.42, 979.47 500.28 C 984.50 499.14, 987.07 498.56, 991.30 497.08 C 995.53 495.60, 997.54 494.81, 1000.61 492.89 C 1003.69 490.97, 1004.81 489.85, 1006.68 487.49 C 1008.54 485.14, 1009.42 483.70, 1009.94 481.12 C 1010.45 478.53, 1009.95 475.92, 1009.24 474.58 C 1008.53 473.24, 1007.22 473.38, 1006.38 474.42 C 1005.54 475.46, 1005.78 477.78, 1005.04 479.78 C 1004.30 481.78, 1004.06 482.55, 1002.68 484.42 C 1001.29 486.29, 1000.67 487.34, 998.13 489.15 C 995.58 490.96, 993.84 491.92, 989.95 493.48 C 986.06 495.04, 983.52 495.73, 978.68 496.95 C 973.83 498.16, 971.11 498.80, 965.70 499.56 C 960.30 500.32, 957.28 500.62, 951.66 500.74 C 946.03 500.86, 942.91 500.80, 937.58 500.16 C 932.26 499.53, 929.33 499.01, 925.02 497.58 C 920.72 496.15, 918.86 495.06, 916.08 493.01 C 913.29 490.97, 912.32 489.54, 911.09 487.35 C 909.85 485.15, 909.58 484.26, 909.91 482.03 C 910.25 479.80, 910.86 478.51, 912.75 476.19 C 914.65 473.86, 916.16 472.37, 919.40 470.39 C 922.64 468.41, 925.08 467.51, 928.95 466.29 C 932.82 465.07, 935.44 464.80, 938.75 464.28 C 942.05 463.75, 943.47 464.07, 945.47 463.66 C 947.48 463.25, 948.25 462.77, 948.77 462.23 C 949.29 461.69, 949.20 461.15, 948.05 460.96 C 946.91 460.76, 945.90 460.89, 943.03 461.25 C 940.16 461.60, 938.36 462.25, 933.71 462.72 C 929.06 463.18, 925.96 463.24, 919.78 463.56 C 913.60 463.88, 909.73 464.08, 902.80 464.32 C 895.88 464.56, 892.15 464.44, 885.14 464.75 C 878.14 465.06, 874.18 465.29, 867.76 465.88 C 861.34 466.48, 858.23 467.01, 853.05 467.73 C 847.86 468.45, 845.63 468.56, 841.83 469.48 C 838.03 470.40, 836.08 471.11, 834.04 472.33 C 832.00 473.56, 831.89 474.59, 831.62 475.62 C 831.35 476.65, 831.79 477.15, 832.71 477.50" style="stroke: white; fill: white;"/><path d="M 1028.81,389.64 C 1027.97 390.05, 1027.57 390.52, 1026.96 391.99 C 1026.34 393.46, 1025.87 394.57, 1025.73 397.00 C 1025.59 399.42, 1026.03 400.95, 1026.26 404.10 C 1026.49 407.24, 1026.61 409.27, 1026.89 412.71 C 1027.18 416.15, 1027.20 418.33, 1027.69 421.30 C 1028.17 424.26, 1028.57 425.50, 1029.32 427.53 C 1030.06 429.57, 1030.59 430.76, 1031.42 431.47 C 1032.25 432.18, 1032.94 432.02, 1033.45 431.09 C 1033.97 430.16, 1033.90 428.91, 1034.01 426.81 C 1034.12 424.71, 1034.16 423.48, 1033.98 420.58 C 1033.80 417.68, 1033.25 415.67, 1033.11 412.31 C 1032.96 408.96, 1033.27 406.89, 1033.25 403.81 C 1033.23 400.74, 1033.19 399.20, 1033.00 396.93 C 1032.82 394.65, 1032.70 393.84, 1032.33 392.45 C 1031.96 391.06, 1031.86 390.53, 1031.16 389.97 C 1030.45 389.41, 1029.65 389.24, 1028.81 389.64" style="stroke: white; fill: white;"/><path d="M 1116.76,444.15 C 1116.16 443.02, 1115.29 441.72, 1112.77 440.76 C 1110.25 439.80, 1108.21 439.57, 1104.14 439.36 C 1100.08 439.14, 1097.35 439.14, 1092.45 439.67 C 1087.54 440.21, 1084.47 440.86, 1079.60 442.03 C 1074.73 443.21, 1071.99 443.84, 1068.10 445.55 C 1064.20 447.26, 1062.13 448.07, 1060.11 450.56 C 1058.09 453.05, 1057.43 455.07, 1057.99 458.00 C 1058.56 460.93, 1059.97 462.40, 1062.93 465.20 C 1065.89 468.01, 1068.17 469.32, 1072.79 472.04 C 1077.42 474.77, 1080.66 476.07, 1086.06 478.85 C 1091.46 481.63, 1094.90 483.25, 1099.80 485.95 C 1104.71 488.65, 1107.22 490.09, 1110.60 492.35 C 1113.97 494.61, 1115.29 495.77, 1116.68 497.25 C 1118.07 498.74, 1118.48 498.72, 1117.55 499.78 C 1116.61 500.85, 1115.44 501.21, 1112.03 502.59 C 1108.61 503.97, 1105.91 505.14, 1100.46 506.69 C 1095.01 508.23, 1091.45 509.14, 1084.78 510.31 C 1078.10 511.48, 1073.86 511.84, 1067.10 512.54 C 1060.34 513.24, 1056.75 513.61, 1050.97 513.84 C 1045.20 514.06, 1042.45 514.00, 1038.23 513.67 C 1034.01 513.35, 1032.45 512.43, 1029.88 512.20 C 1027.32 511.98, 1026.63 512.37, 1025.40 512.55 C 1024.17 512.73, 1024.10 512.79, 1023.72 513.10 C 1023.35 513.41, 1023.28 513.67, 1023.53 514.10 C 1023.78 514.53, 1023.83 514.71, 1024.98 515.25 C 1026.14 515.80, 1026.69 516.41, 1029.32 516.82 C 1031.94 517.23, 1033.73 517.30, 1038.09 517.31 C 1042.45 517.31, 1045.27 517.25, 1051.13 516.87 C 1056.99 516.49, 1060.57 516.10, 1067.40 515.40 C 1074.23 514.71, 1078.48 514.40, 1085.27 513.38 C 1092.07 512.36, 1095.70 511.63, 1101.40 510.29 C 1107.10 508.94, 1109.97 508.39, 1113.78 506.66 C 1117.60 504.92, 1119.24 503.97, 1120.46 501.62 C 1121.68 499.27, 1121.43 497.40, 1119.88 494.90 C 1118.34 492.40, 1116.43 491.50, 1112.74 489.10 C 1109.06 486.71, 1106.46 485.58, 1101.46 482.90 C 1096.45 480.23, 1093.02 478.58, 1087.70 475.73 C 1082.38 472.88, 1079.21 471.44, 1074.87 468.66 C 1070.53 465.89, 1068.59 464.19, 1066.01 461.87 C 1063.43 459.55, 1062.47 458.73, 1061.97 457.07 C 1061.46 455.42, 1061.91 455.11, 1063.49 453.61 C 1065.06 452.10, 1066.44 451.06, 1069.86 449.56 C 1073.27 448.05, 1075.97 447.17, 1080.57 446.09 C 1085.16 445.01, 1088.21 444.45, 1092.84 444.16 C 1097.47 443.86, 1100.03 444.21, 1103.73 444.61 C 1107.43 445.00, 1108.93 445.76, 1111.33 446.12 C 1113.74 446.48, 1114.68 446.81, 1115.77 446.41 C 1116.85 446.02, 1117.36 445.28, 1116.76 444.15" style="stroke: white; fill: white;"/></svg>