<svg xmlns="http://www.w3.org/2000/svg" id="canvas" speechify-initial-font-family="&quot;Open Sans&quot;, sans-serif" speechify-initial-font-size="16px" viewBox="268.932 362.152 732.832 202.724"><path d="M 295.96,407.65 C 295.59 409.50, 296.24 411.96, 296.70 416.55 C 297.16 421.14, 297.52 424.19, 298.27 430.59 C 299.01 437.00, 299.60 441.13, 300.44 448.57 C 301.27 456.01, 301.73 460.14, 302.44 467.80 C 303.15 475.45, 303.50 479.43, 304.01 486.84 C 304.52 494.24, 304.64 498.09, 304.99 504.82 C 305.34 511.55, 305.54 514.94, 305.76 520.48 C 305.98 526.02, 306.11 528.47, 306.07 532.51 C 306.03 536.55, 305.53 538.16, 305.58 540.68 C 305.62 543.20, 306.04 543.81, 306.29 545.10 C 306.54 546.40, 306.45 546.71, 306.81 547.16 C 307.18 547.62, 307.61 547.75, 308.12 547.38 C 308.62 547.01, 308.91 546.64, 309.34 545.31 C 309.76 543.98, 310.15 543.31, 310.25 540.73 C 310.34 538.14, 310.10 536.48, 309.80 532.39 C 309.50 528.31, 309.19 525.85, 308.74 520.30 C 308.29 514.76, 308.04 511.39, 307.57 504.66 C 307.11 497.94, 306.96 494.08, 306.42 486.67 C 305.89 479.25, 305.54 475.26, 304.89 467.58 C 304.24 459.90, 303.86 455.75, 303.16 448.29 C 302.46 440.83, 301.99 436.69, 301.39 430.27 C 300.79 423.84, 300.73 420.75, 300.16 416.16 C 299.60 411.57, 299.39 409.01, 298.55 407.30 C 297.71 405.60, 296.33 405.80, 295.96 407.65" style="stroke: black; fill: black;"/><path d="M 274.21,403.94 C 275.86 403.01, 277.38 400.62, 280.35 397.53 C 283.32 394.44, 284.87 392.22, 289.07 388.49 C 293.27 384.76, 296.02 382.09, 301.35 378.88 C 306.69 375.66, 310.04 374.40, 315.73 372.42 C 321.43 370.44, 324.22 369.79, 329.83 368.98 C 335.43 368.18, 338.43 367.95, 343.77 368.40 C 349.11 368.85, 351.87 369.49, 356.52 371.23 C 361.17 372.98, 363.46 374.30, 367.02 377.13 C 370.58 379.96, 372.17 381.70, 374.34 385.37 C 376.50 389.04, 377.16 391.15, 377.86 395.47 C 378.55 399.80, 378.63 402.19, 377.83 406.98 C 377.02 411.77, 376.13 414.45, 373.84 419.44 C 371.56 424.43, 369.90 427.15, 366.40 431.93 C 362.89 436.70, 360.81 439.16, 356.32 443.31 C 351.83 447.46, 348.88 449.56, 343.95 452.67 C 339.03 455.78, 336.34 457.07, 331.72 458.85 C 327.09 460.62, 324.50 461.12, 320.82 461.55 C 317.14 461.98, 315.72 461.27, 313.31 460.98 C 310.90 460.70, 310.23 460.43, 308.77 460.13 C 307.32 459.83, 306.77 459.34, 306.04 459.50 C 305.31 459.66, 304.87 460.13, 305.13 460.92 C 305.39 461.71, 305.83 462.46, 307.34 463.44 C 308.85 464.43, 309.85 465.44, 312.67 465.85 C 315.48 466.26, 317.37 466.27, 321.43 465.49 C 325.49 464.71, 328.14 464.01, 332.98 461.96 C 337.81 459.91, 340.52 458.53, 345.60 455.23 C 350.67 451.94, 353.69 449.79, 358.34 445.49 C 362.99 441.19, 365.16 438.67, 368.85 433.74 C 372.54 428.80, 374.31 426.05, 376.78 420.81 C 379.26 415.58, 380.30 412.75, 381.22 407.57 C 382.14 402.39, 382.14 399.71, 381.38 394.91 C 380.62 390.11, 379.85 387.64, 377.41 383.55 C 374.96 379.45, 373.10 377.50, 369.15 374.42 C 365.20 371.34, 362.68 369.98, 357.65 368.17 C 352.63 366.35, 349.66 365.76, 344.01 365.34 C 338.36 364.92, 335.25 365.22, 329.40 366.08 C 323.56 366.94, 320.71 367.61, 314.77 369.62 C 308.84 371.63, 305.33 372.88, 299.73 376.13 C 294.13 379.38, 291.21 382.09, 286.78 385.86 C 282.35 389.63, 280.53 391.71, 277.60 394.97 C 274.67 398.23, 272.81 400.37, 272.13 402.16 C 271.46 403.96, 272.57 404.87, 274.21 403.94" style="stroke: black; fill: black;"/><path d="M 436.24,474.72 C 436.34 473.60, 435.83 472.56, 434.75 471.00 C 433.67 469.44, 433.08 468.37, 430.83 466.91 C 428.59 465.46, 426.76 464.24, 423.52 463.73 C 420.28 463.23, 418.30 463.30, 414.63 464.39 C 410.95 465.48, 408.89 466.59, 405.14 469.19 C 401.39 471.79, 399.26 473.66, 395.88 477.40 C 392.50 481.14, 390.75 483.39, 388.24 487.91 C 385.74 492.42, 384.51 495.09, 383.36 499.96 C 382.22 504.83, 381.89 507.69, 382.51 512.23 C 383.13 516.77, 384.05 519.09, 386.46 522.66 C 388.88 526.23, 390.81 527.71, 394.59 530.09 C 398.36 532.46, 400.71 533.45, 405.34 534.54 C 409.96 535.63, 412.68 535.91, 417.71 535.55 C 422.74 535.19, 425.61 534.51, 430.49 532.74 C 435.37 530.97, 437.76 529.52, 442.11 526.71 C 446.47 523.89, 448.77 522.11, 452.25 518.66 C 455.73 515.21, 457.33 513.30, 459.52 509.45 C 461.71 505.60, 462.42 503.27, 463.21 499.42 C 464.00 495.57, 463.91 493.70, 463.47 490.20 C 463.04 486.70, 462.45 484.80, 461.03 481.94 C 459.62 479.08, 458.21 477.71, 456.39 475.89 C 454.56 474.07, 453.52 473.63, 451.90 472.84 C 450.29 472.06, 449.26 471.78, 448.32 471.94 C 447.38 472.10, 447.03 472.76, 447.20 473.65 C 447.36 474.53, 448.16 475.13, 449.13 476.37 C 450.10 477.62, 450.69 478.21, 452.06 479.87 C 453.43 481.52, 454.66 482.43, 455.97 484.65 C 457.28 486.88, 458.02 488.19, 458.60 490.99 C 459.19 493.79, 459.41 495.33, 458.90 498.63 C 458.39 501.94, 457.89 504.05, 456.04 507.53 C 454.18 511.01, 452.81 512.82, 449.63 516.05 C 446.45 519.28, 444.23 521.04, 440.16 523.70 C 436.09 526.36, 433.81 527.73, 429.27 529.35 C 424.73 530.97, 422.06 531.53, 417.46 531.81 C 412.86 532.09, 410.40 531.76, 406.25 530.74 C 402.10 529.72, 400.01 528.78, 396.70 526.72 C 393.39 524.66, 391.79 523.44, 389.71 520.44 C 387.63 517.44, 386.85 515.64, 386.30 511.71 C 385.76 507.79, 385.94 505.21, 386.98 500.82 C 388.02 496.42, 389.14 493.88, 391.51 489.75 C 393.88 485.61, 395.61 483.50, 398.83 480.14 C 402.05 476.78, 404.20 475.06, 407.61 472.94 C 411.02 470.83, 412.99 470.10, 415.90 469.56 C 418.81 469.03, 419.87 469.62, 422.14 470.28 C 424.42 470.93, 425.51 471.87, 427.27 472.83 C 429.02 473.79, 429.54 474.34, 430.93 475.09 C 432.32 475.84, 433.15 476.65, 434.21 476.57 C 435.27 476.50, 436.13 475.83, 436.24 474.72" style="stroke: black; fill: black;"/><path d="M 491.20,485.56 C 490.89 486.72, 491.40 487.88, 491.95 490.03 C 492.50 492.18, 493.11 493.49, 493.94 496.32 C 494.77 499.16, 495.26 501.13, 496.10 504.19 C 496.93 507.26, 497.26 509.20, 498.11 511.64 C 498.95 514.09, 499.23 515.10, 500.31 516.43 C 501.38 517.76, 502.36 518.43, 503.49 518.29 C 504.63 518.16, 505.40 517.47, 505.98 515.75 C 506.56 514.03, 506.62 512.59, 506.39 509.70 C 506.16 506.80, 505.35 504.83, 504.82 501.27 C 504.29 497.72, 503.88 495.42, 503.74 491.93 C 503.59 488.44, 503.58 486.64, 504.09 483.82 C 504.60 481.00, 505.01 479.91, 506.28 477.83 C 507.55 475.75, 508.39 475.01, 510.43 473.44 C 512.48 471.86, 513.64 471.14, 516.50 469.97 C 519.36 468.80, 521.50 468.31, 524.74 467.59 C 527.99 466.88, 530.01 467.07, 532.72 466.40 C 535.44 465.73, 537.23 465.15, 538.31 464.26 C 539.39 463.36, 539.36 462.60, 538.10 461.91 C 536.85 461.22, 534.97 460.79, 532.04 460.80 C 529.12 460.82, 527.02 461.18, 523.48 461.99 C 519.94 462.80, 517.64 463.45, 514.35 464.87 C 511.07 466.30, 509.58 467.09, 507.04 469.12 C 504.50 471.15, 503.27 472.30, 501.64 475.04 C 500.01 477.78, 499.56 479.45, 498.89 482.84 C 498.22 486.23, 498.37 488.20, 498.31 491.99 C 498.24 495.79, 498.46 498.10, 498.57 501.82 C 498.67 505.54, 498.36 507.69, 498.83 510.61 C 499.30 513.52, 499.93 514.99, 500.91 516.40 C 501.89 517.81, 502.99 517.93, 503.74 517.64 C 504.49 517.36, 504.52 516.51, 504.66 514.99 C 504.79 513.47, 504.82 512.54, 504.41 510.04 C 503.99 507.54, 503.38 505.66, 502.58 502.49 C 501.78 499.33, 501.47 497.21, 500.41 494.22 C 499.35 491.23, 498.66 489.54, 497.27 487.55 C 495.88 485.55, 494.69 484.63, 493.47 484.23 C 492.26 483.83, 491.50 484.40, 491.20 485.56" style="stroke: black; fill: black;"/><path d="M 582.69,392.54 C 581.99 393.32, 581.65 393.99, 581.51 396.26 C 581.36 398.53, 581.64 399.90, 581.96 403.88 C 582.28 407.87, 582.55 410.63, 583.11 416.17 C 583.67 421.72, 584.00 425.07, 584.76 431.63 C 585.52 438.18, 586.03 441.94, 586.92 448.95 C 587.81 455.97, 588.27 459.78, 589.21 466.71 C 590.14 473.63, 590.78 477.23, 591.59 483.58 C 592.40 489.92, 592.73 493.18, 593.25 498.44 C 593.78 503.70, 593.82 506.23, 594.22 509.88 C 594.62 513.53, 594.82 514.73, 595.25 516.70 C 595.68 518.67, 595.89 519.13, 596.39 519.73 C 596.89 520.33, 597.29 520.35, 597.75 519.68 C 598.21 519.02, 598.58 518.47, 598.68 516.42 C 598.79 514.36, 598.72 513.09, 598.27 509.41 C 597.82 505.74, 597.21 503.29, 596.42 498.05 C 595.64 492.81, 595.26 489.54, 594.34 483.20 C 593.42 476.86, 592.76 473.27, 591.82 466.35 C 590.88 459.44, 590.43 455.63, 589.63 448.63 C 588.83 441.62, 588.36 437.86, 587.83 431.32 C 587.30 424.78, 587.12 421.46, 586.97 415.93 C 586.81 410.39, 587.12 407.64, 587.06 403.64 C 587.01 399.64, 587.10 398.20, 586.68 395.94 C 586.26 393.69, 585.76 393.05, 584.96 392.37 C 584.16 391.69, 583.38 391.76, 582.69 392.54" style="stroke: black; fill: black;"/><path d="M 552.83,486.29 C 553.68 486.78, 554.26 486.72, 556.27 486.55 C 558.28 486.38, 559.52 486.25, 562.88 485.45 C 566.24 484.64, 568.46 483.53, 573.08 482.50 C 577.71 481.47, 580.39 481.22, 585.99 480.30 C 591.59 479.38, 595.11 478.90, 601.06 477.90 C 607.02 476.91, 610.75 476.26, 615.77 475.33 C 620.79 474.40, 622.91 474.15, 626.17 473.24 C 629.43 472.33, 630.99 471.62, 632.08 470.76 C 633.17 469.91, 632.96 469.20, 631.62 468.97 C 630.27 468.73, 628.66 469.05, 625.35 469.61 C 622.05 470.17, 620.06 470.77, 615.09 471.76 C 610.12 472.75, 606.43 473.57, 600.50 474.56 C 594.58 475.56, 591.11 476.03, 585.47 476.74 C 579.84 477.46, 577.09 477.54, 572.32 478.13 C 567.56 478.73, 565.12 479.07, 561.64 479.74 C 558.17 480.41, 556.86 480.62, 554.94 481.49 C 553.01 482.36, 552.45 483.14, 552.03 484.10 C 551.61 485.06, 551.99 485.80, 552.83 486.29" style="stroke: black; fill: black;"/><path d="M 698.66,440.17 C 699.53 438.91, 700.11 436.88, 700.25 433.81 C 700.39 430.74, 700.03 428.64, 699.35 424.82 C 698.68 421.00, 698.23 418.47, 696.89 414.70 C 695.54 410.93, 694.61 408.97, 692.62 405.98 C 690.62 402.99, 689.53 401.61, 686.90 399.76 C 684.28 397.90, 682.60 396.99, 679.49 396.71 C 676.38 396.43, 674.29 396.64, 671.37 398.35 C 668.45 400.05, 667.23 401.70, 664.87 405.22 C 662.51 408.75, 661.52 410.80, 659.57 415.96 C 657.63 421.13, 656.64 424.33, 655.15 431.04 C 653.67 437.76, 652.99 441.79, 652.14 449.53 C 651.28 457.27, 651.04 461.52, 650.89 469.75 C 650.73 477.98, 650.90 482.54, 651.37 490.67 C 651.83 498.81, 652.21 502.99, 653.21 510.42 C 654.21 517.85, 655.04 521.46, 656.36 527.82 C 657.68 534.18, 658.50 537.12, 659.81 542.22 C 661.12 547.32, 661.67 549.83, 662.92 553.32 C 664.16 556.80, 664.99 557.97, 666.04 559.65 C 667.09 561.33, 667.53 561.40, 668.18 561.72 C 668.83 562.03, 669.10 561.89, 669.29 561.20 C 669.48 560.52, 669.63 560.15, 669.13 558.29 C 668.62 556.43, 668.03 555.30, 666.76 551.91 C 665.50 548.53, 664.37 546.29, 662.80 541.36 C 661.22 536.43, 660.35 533.51, 658.89 527.26 C 657.44 521.01, 656.59 517.44, 655.53 510.10 C 654.48 502.76, 654.09 498.60, 653.62 490.55 C 653.15 482.49, 652.99 477.95, 653.19 469.80 C 653.40 461.66, 653.68 457.44, 654.64 449.82 C 655.61 442.21, 656.37 438.23, 658.02 431.73 C 659.68 425.23, 660.82 422.10, 662.92 417.32 C 665.01 412.54, 666.29 410.71, 668.52 407.84 C 670.75 404.98, 671.97 404.19, 674.06 402.99 C 676.15 401.79, 677.03 401.61, 678.96 401.84 C 680.89 402.08, 681.84 402.75, 683.71 404.15 C 685.57 405.56, 686.64 406.42, 688.28 408.88 C 689.92 411.34, 690.76 413.07, 691.90 416.44 C 693.05 419.80, 693.43 422.19, 693.98 425.71 C 694.52 429.23, 694.25 431.17, 694.63 434.05 C 695.02 436.92, 695.10 438.87, 695.91 440.09 C 696.71 441.32, 697.79 441.42, 698.66 440.17" style="stroke: black; fill: black;"/><path d="M 623.82,495.44 C 624.81 495.65, 625.10 495.50, 627.55 494.73 C 630.00 493.96, 631.75 492.97, 636.06 491.59 C 640.38 490.22, 642.99 489.23, 649.12 487.86 C 655.25 486.48, 659.71 486.02, 666.72 484.73 C 673.74 483.45, 677.27 482.65, 684.19 481.42 C 691.12 480.18, 698.00 479.62, 701.35 478.56 C 704.70 477.50, 704.48 476.07, 700.96 476.12 C 697.44 476.18, 690.69 477.68, 683.75 478.84 C 676.81 480.00, 673.30 480.79, 666.24 481.91 C 659.18 483.03, 654.72 483.37, 648.44 484.44 C 642.17 485.52, 639.47 486.23, 634.88 487.30 C 630.30 488.37, 627.96 488.54, 625.51 489.81 C 623.05 491.08, 622.94 492.53, 622.60 493.65 C 622.26 494.78, 622.83 495.22, 623.82 495.44" style="stroke: black; fill: black;"/><path d="M 774.26,472.87 C 773.70 471.92, 772.86 471.33, 771.02 470.69 C 769.17 470.05, 767.75 469.55, 765.05 469.68 C 762.35 469.82, 760.54 470.09, 757.52 471.35 C 754.50 472.62, 752.94 473.73, 749.97 476.00 C 746.99 478.27, 745.20 479.78, 742.64 482.70 C 740.09 485.63, 738.89 487.27, 737.19 490.61 C 735.48 493.95, 734.55 495.90, 734.11 499.41 C 733.66 502.93, 733.72 505.04, 734.96 508.21 C 736.20 511.37, 737.58 513.11, 740.32 515.23 C 743.06 517.35, 744.91 518.00, 748.67 518.79 C 752.44 519.58, 754.70 519.53, 759.14 519.19 C 763.58 518.85, 766.30 518.42, 770.87 517.11 C 775.44 515.80, 778.00 514.71, 782.01 512.62 C 786.03 510.53, 787.85 509.42, 790.95 506.67 C 794.04 503.93, 795.57 502.00, 797.49 498.91 C 799.41 495.82, 800.30 494.17, 800.57 491.23 C 800.84 488.30, 799.72 485.59, 798.85 484.23 C 797.99 482.87, 796.89 483.21, 796.25 484.45 C 795.60 485.69, 796.19 488.05, 795.61 490.44 C 795.03 492.83, 794.87 493.80, 793.35 496.40 C 791.82 499.00, 790.65 500.94, 788.00 503.45 C 785.35 505.96, 783.75 507.02, 780.09 508.93 C 776.43 510.84, 773.96 511.83, 769.72 512.98 C 765.47 514.13, 762.85 514.47, 758.86 514.67 C 754.86 514.86, 752.80 514.68, 749.75 513.96 C 746.69 513.24, 745.54 512.59, 743.59 511.04 C 741.65 509.49, 740.87 508.41, 740.01 506.22 C 739.16 504.03, 738.96 502.74, 739.31 500.09 C 739.66 497.44, 740.33 495.76, 741.78 492.98 C 743.23 490.21, 744.26 488.70, 746.56 486.23 C 748.85 483.75, 750.59 482.36, 753.26 480.63 C 755.92 478.90, 757.40 478.36, 759.86 477.56 C 762.32 476.76, 763.47 476.83, 765.56 476.61 C 767.66 476.39, 768.70 476.67, 770.35 476.44 C 772.00 476.21, 773.03 476.16, 773.81 475.45 C 774.59 474.73, 774.82 473.82, 774.26 472.87" style="stroke: black; fill: black;"/><path d="M 822.91,414.98 C 822.45 416.02, 822.55 417.01, 822.94 419.34 C 823.33 421.66, 823.97 422.95, 824.84 426.61 C 825.72 430.27, 826.43 432.69, 827.31 437.66 C 828.19 442.63, 828.48 445.69, 829.26 451.47 C 830.04 457.25, 830.34 460.56, 831.20 466.56 C 832.07 472.56, 832.38 475.73, 833.57 481.46 C 834.75 487.20, 835.67 490.28, 837.11 495.24 C 838.55 500.20, 839.18 502.38, 840.78 506.26 C 842.37 510.15, 843.02 512.04, 845.09 514.67 C 847.16 517.30, 848.62 518.51, 851.11 519.42 C 853.59 520.33, 854.99 520.05, 857.53 519.22 C 860.08 518.39, 861.67 517.35, 863.85 515.27 C 866.02 513.19, 867.07 511.33, 868.40 508.81 C 869.73 506.29, 870.10 504.90, 870.49 502.67 C 870.88 500.45, 870.83 498.83, 870.35 497.70 C 869.87 496.57, 869.06 496.46, 868.09 497.05 C 867.12 497.63, 866.67 499.00, 865.48 500.62 C 864.30 502.24, 863.53 503.11, 862.18 505.14 C 860.82 507.17, 860.06 508.85, 858.72 510.79 C 857.38 512.73, 856.68 513.91, 855.48 514.85 C 854.27 515.79, 854.02 516.10, 852.70 515.48 C 851.38 514.85, 850.55 513.88, 848.88 511.72 C 847.21 509.55, 846.05 508.16, 844.35 504.67 C 842.64 501.17, 841.89 499.02, 840.34 494.25 C 838.80 489.48, 837.84 486.44, 836.64 480.82 C 835.43 475.19, 835.10 472.08, 834.31 466.13 C 833.52 460.18, 833.26 456.88, 832.69 451.07 C 832.11 445.25, 831.96 442.18, 831.42 437.08 C 830.87 431.98, 830.63 429.41, 829.97 425.56 C 829.31 421.72, 829.08 420.12, 828.13 417.83 C 827.17 415.55, 826.26 414.70, 825.22 414.13 C 824.17 413.56, 823.36 413.94, 822.91 414.98" style="stroke: black; fill: black;"/><path d="M 879.43,464.84 C 878.59 465.61, 877.98 466.53, 877.65 468.72 C 877.32 470.90, 877.49 472.72, 877.79 475.78 C 878.09 478.84, 878.56 480.61, 879.14 483.99 C 879.72 487.38, 880.12 489.39, 880.69 492.72 C 881.25 496.04, 881.30 497.80, 881.96 500.62 C 882.63 503.45, 883.24 504.84, 884.01 506.84 C 884.78 508.84, 885.03 509.92, 885.81 510.63 C 886.58 511.34, 887.27 511.34, 887.87 510.41 C 888.47 509.49, 888.79 508.20, 888.81 505.99 C 888.83 503.79, 888.48 502.23, 887.98 499.39 C 887.48 496.54, 886.85 495.00, 886.30 491.76 C 885.75 488.52, 885.55 486.53, 885.24 483.19 C 884.93 479.84, 885.09 478.00, 884.74 475.04 C 884.39 472.07, 884.08 470.40, 883.50 468.37 C 882.92 466.33, 882.66 465.58, 881.84 464.88 C 881.03 464.17, 880.27 464.07, 879.43 464.84" style="stroke: black; fill: black;"/><path d="M 885.81,424.83 C 886.69 425.13, 887.22 425.28, 887.39 425.04 C 887.57 424.81, 887.32 424.37, 886.71 423.65 C 886.10 422.93, 885.25 421.86, 884.36 421.44 C 883.46 421.02, 882.52 421.14, 882.25 421.56 C 881.98 421.99, 882.31 422.91, 883.02 423.56 C 883.73 424.22, 884.94 424.54, 885.81 424.83" style="stroke: black; fill: black;"/><path d="M 967.93,468.75 C 967.63 467.69, 966.90 466.98, 965.31 465.88 C 963.73 464.78, 962.68 463.83, 960.00 463.24 C 957.32 462.65, 955.36 462.40, 951.91 462.92 C 948.47 463.45, 946.48 464.30, 942.77 465.88 C 939.05 467.46, 937.02 468.49, 933.32 470.84 C 929.63 473.18, 927.52 474.62, 924.29 477.60 C 921.07 480.59, 919.32 482.40, 917.22 485.75 C 915.12 489.10, 914.26 490.91, 913.82 494.35 C 913.37 497.78, 913.58 499.81, 914.99 502.93 C 916.40 506.05, 917.83 507.62, 920.85 509.95 C 923.87 512.28, 925.92 513.19, 930.08 514.59 C 934.24 516.00, 936.75 516.61, 941.65 516.97 C 946.55 517.34, 949.47 517.21, 954.56 516.43 C 959.65 515.65, 962.24 514.87, 967.11 513.06 C 971.97 511.26, 974.60 510.00, 978.90 507.38 C 983.20 504.77, 985.31 503.07, 988.61 500.00 C 991.91 496.92, 993.37 495.23, 995.40 492.01 C 997.43 488.79, 998.58 486.85, 998.75 483.89 C 998.93 480.94, 997.24 478.47, 996.26 477.25 C 995.29 476.02, 994.31 476.56, 993.88 477.78 C 993.45 479.00, 994.57 480.97, 994.11 483.34 C 993.65 485.71, 993.22 486.89, 991.57 489.65 C 989.91 492.41, 988.77 494.21, 985.85 497.13 C 982.93 500.06, 980.97 501.75, 976.97 504.26 C 972.97 506.78, 970.45 508.00, 965.86 509.70 C 961.27 511.39, 958.80 512.09, 954.03 512.74 C 949.26 513.39, 946.50 513.41, 942.01 512.94 C 937.53 512.46, 935.22 511.73, 931.60 510.36 C 927.97 508.98, 926.29 507.97, 923.89 506.07 C 921.49 504.16, 920.62 503.04, 919.58 500.82 C 918.54 498.60, 918.36 497.50, 918.69 494.98 C 919.01 492.46, 919.45 491.03, 921.19 488.22 C 922.92 485.41, 924.45 483.61, 927.36 480.92 C 930.28 478.24, 932.30 476.83, 935.75 474.78 C 939.20 472.74, 941.24 471.84, 944.61 470.71 C 947.98 469.58, 949.80 469.32, 952.61 469.15 C 955.41 468.98, 956.54 469.48, 958.64 469.87 C 960.74 470.25, 961.48 470.82, 963.11 471.08 C 964.74 471.34, 965.83 471.63, 966.80 471.16 C 967.76 470.70, 968.22 469.81, 967.93 468.75" style="stroke: black; fill: black;"/></svg>