<svg xmlns="http://www.w3.org/2000/svg" id="canvas" speechify-initial-font-family="&quot;Open Sans&quot;, sans-serif" speechify-initial-font-size="16px" viewBox="281.989 323.239 833.632 281.552"><path d="M 327.15,342.99 C 326.59 344.81, 326.76 346.98, 326.80 352.14 C 326.84 357.29, 327.22 360.57, 327.36 368.75 C 327.50 376.93, 327.65 382.55, 327.50 393.03 C 327.36 403.51, 327.21 409.53, 326.62 421.14 C 326.04 432.74, 325.55 439.08, 324.57 451.05 C 323.59 463.03, 322.99 469.45, 321.72 481.02 C 320.44 492.59, 319.58 498.52, 318.20 508.91 C 316.82 519.29, 316.23 524.26, 314.80 532.96 C 313.37 541.66, 312.69 545.89, 311.05 552.42 C 309.41 558.95, 308.16 561.89, 306.60 565.60 C 305.03 569.30, 304.55 570.60, 303.21 570.94 C 301.88 571.29, 301.67 570.50, 299.92 567.32 C 298.18 564.14, 296.59 561.42, 294.49 555.04 C 292.38 548.65, 290.94 544.63, 289.40 535.41 C 287.87 526.19, 287.14 520.25, 286.82 508.95 C 286.50 497.65, 286.62 491.30, 287.81 478.91 C 288.99 466.51, 289.82 459.80, 292.74 446.97 C 295.66 434.14, 297.95 427.01, 302.42 414.78 C 306.89 402.55, 309.60 396.43, 315.10 385.80 C 320.59 375.18, 323.68 370.04, 329.89 361.66 C 336.10 353.29, 339.50 349.64, 346.13 343.93 C 352.76 338.22, 356.46 336.13, 363.04 333.12 C 369.62 330.12, 373.11 329.33, 379.04 328.91 C 384.97 328.49, 388.07 329.13, 392.68 331.03 C 397.30 332.94, 399.39 334.72, 402.10 338.43 C 404.82 342.14, 405.86 344.58, 406.27 349.59 C 406.67 354.59, 406.42 357.30, 404.15 363.45 C 401.87 369.61, 399.94 373.36, 394.89 380.34 C 389.83 387.33, 386.08 391.28, 378.86 398.37 C 371.65 405.47, 366.99 409.22, 358.83 415.82 C 350.67 422.42, 345.85 425.99, 338.08 431.37 C 330.31 436.76, 326.12 439.28, 319.98 442.75 C 313.85 446.23, 311.09 447.00, 307.40 448.76 C 303.71 450.51, 302.94 450.74, 301.54 451.53 C 300.14 452.31, 300.61 452.33, 300.42 452.69 C 300.23 453.04, 300.19 453.10, 300.58 453.30 C 300.97 453.50, 300.71 454.04, 302.35 453.70 C 303.98 453.36, 304.99 453.38, 308.75 451.59 C 312.51 449.80, 315.07 448.46, 321.15 444.74 C 327.24 441.01, 331.43 438.46, 339.20 432.96 C 346.97 427.47, 351.79 423.90, 359.99 417.26 C 368.20 410.62, 372.90 406.90, 380.24 399.78 C 387.58 392.66, 391.42 388.75, 396.69 381.67 C 401.95 374.58, 404.07 370.84, 406.58 364.37 C 409.08 357.91, 409.61 354.91, 409.20 349.36 C 408.80 343.81, 407.66 340.81, 404.56 336.62 C 401.47 332.43, 398.89 330.44, 393.74 328.41 C 388.60 326.38, 385.16 325.89, 378.84 326.46 C 372.53 327.02, 368.93 328.00, 362.16 331.23 C 355.38 334.45, 351.66 336.68, 344.95 342.58 C 338.25 348.48, 334.85 352.22, 328.62 360.73 C 322.39 369.24, 319.31 374.42, 313.81 385.14 C 308.31 395.85, 305.59 402.00, 301.11 414.30 C 296.62 426.60, 294.33 433.76, 291.36 446.65 C 288.40 459.55, 287.55 466.29, 286.29 478.76 C 285.03 491.23, 284.87 497.59, 285.05 508.99 C 285.23 520.39, 285.86 526.37, 287.19 535.75 C 288.52 545.14, 289.75 549.22, 291.70 555.90 C 293.65 562.59, 294.54 565.68, 296.94 569.17 C 299.35 572.66, 301.24 573.83, 303.73 573.36 C 306.21 572.89, 307.44 570.91, 309.36 566.83 C 311.28 562.75, 311.86 559.67, 313.32 552.95 C 314.77 546.24, 315.35 542.02, 316.65 533.25 C 317.95 524.48, 318.51 519.53, 319.84 509.12 C 321.16 498.71, 322.00 492.78, 323.26 481.19 C 324.52 469.60, 325.11 463.17, 326.12 451.18 C 327.13 439.19, 327.63 432.85, 328.31 421.23 C 328.99 409.61, 329.21 403.57, 329.52 393.07 C 329.83 382.57, 329.82 376.93, 329.86 368.74 C 329.91 360.54, 329.81 357.25, 329.75 352.11 C 329.70 346.96, 330.12 344.84, 329.60 343.01 C 329.07 341.19, 327.71 341.16, 327.15 342.99" style="stroke: black; fill: black;"/><path d="M 405.55,482.18 C 404.35 482.86, 403.59 483.86, 401.61 486.77 C 399.62 489.67, 398.07 492.00, 395.63 496.72 C 393.19 501.44, 391.45 504.86, 389.43 510.36 C 387.41 515.85, 386.38 519.00, 385.52 524.19 C 384.65 529.39, 384.40 532.09, 385.10 536.32 C 385.80 540.56, 386.46 542.65, 389.02 545.35 C 391.58 548.04, 393.80 549.17, 397.91 549.80 C 402.01 550.44, 404.54 549.98, 409.55 548.54 C 414.55 547.10, 417.61 545.92, 422.94 542.61 C 428.26 539.31, 431.31 536.98, 436.19 532.01 C 441.07 527.03, 443.63 523.72, 447.34 517.75 C 451.04 511.78, 452.86 508.22, 454.72 502.17 C 456.58 496.13, 457.03 492.70, 456.64 487.51 C 456.25 482.33, 455.35 479.80, 452.77 476.23 C 450.19 472.65, 447.79 471.18, 443.74 469.63 C 439.69 468.08, 436.75 468.06, 432.51 468.48 C 428.27 468.90, 425.59 469.77, 422.56 471.73 C 419.53 473.70, 417.80 475.65, 417.37 478.31 C 416.94 480.97, 417.79 483.26, 420.40 485.04 C 423.00 486.82, 425.49 487.06, 430.39 487.21 C 435.29 487.36, 438.35 486.67, 444.89 485.78 C 451.44 484.89, 455.71 483.91, 463.11 482.76 C 470.52 481.61, 474.67 480.51, 481.93 480.03 C 489.18 479.55, 493.17 479.45, 499.38 480.36 C 505.59 481.28, 508.57 482.13, 512.99 484.60 C 517.41 487.07, 518.98 488.82, 521.48 492.70 C 523.99 496.58, 524.68 499.21, 525.51 503.99 C 526.35 508.77, 526.03 511.58, 525.68 516.59 C 525.34 521.60, 524.81 524.51, 523.80 529.05 C 522.80 533.58, 521.40 536.04, 520.65 539.26 C 519.89 542.48, 519.63 543.90, 520.03 545.15 C 520.43 546.41, 521.50 546.79, 522.64 545.54 C 523.77 544.29, 524.16 542.80, 525.69 538.89 C 527.23 534.99, 528.03 531.62, 530.32 526.00 C 532.60 520.38, 534.14 516.57, 537.12 510.79 C 540.09 505.02, 541.87 501.87, 545.20 497.12 C 548.53 492.36, 550.47 490.21, 553.77 487.02 C 557.07 483.83, 558.56 482.87, 561.69 481.18 C 564.81 479.49, 566.04 479.31, 569.42 478.57 C 572.80 477.84, 574.56 477.94, 578.57 477.51 C 582.59 477.08, 584.84 477.14, 589.50 476.41 C 594.16 475.68, 596.82 475.32, 601.88 473.87 C 606.93 472.43, 609.52 471.62, 614.79 469.19 C 620.05 466.76, 622.97 465.40, 628.19 461.72 C 633.41 458.04, 636.13 455.79, 640.90 450.77 C 645.67 445.75, 647.85 442.58, 652.05 436.62 C 656.25 430.65, 658.41 427.47, 661.90 420.95 C 665.40 414.44, 666.95 410.60, 669.52 404.04 C 672.09 397.49, 673.56 393.17, 674.76 388.19 C 675.97 383.22, 676.23 380.65, 675.54 379.19 C 674.84 377.72, 673.02 377.99, 671.30 380.88 C 669.58 383.77, 668.98 386.87, 666.92 393.64 C 664.87 400.42, 663.33 405.50, 661.02 414.75 C 658.71 424.00, 657.31 429.98, 655.38 439.88 C 653.44 449.79, 652.64 454.96, 651.34 464.29 C 650.04 473.63, 649.50 478.30, 648.88 486.55 C 648.25 494.81, 648.17 499.01, 648.21 505.58 C 648.26 512.15, 648.74 515.11, 649.10 519.42 C 649.46 523.73, 649.43 525.07, 650.01 527.13 C 650.59 529.20, 651.40 529.19, 652.01 529.75 C 652.62 530.30, 652.78 529.94, 653.04 529.90 C 653.30 529.86, 653.22 529.71, 653.31 529.54 C 653.40 529.38, 653.44 529.69, 653.50 529.07 C 653.57 528.44, 653.87 528.42, 653.65 526.41 C 653.43 524.41, 653.00 523.23, 652.41 519.05 C 651.83 514.87, 651.01 511.99, 650.71 505.52 C 650.42 499.05, 650.44 494.89, 650.95 486.70 C 651.45 478.50, 651.96 473.84, 653.25 464.56 C 654.53 455.28, 655.33 450.12, 657.36 440.28 C 659.40 430.45, 660.92 424.52, 663.41 415.37 C 665.89 406.23, 667.58 401.19, 669.79 394.56 C 672.01 387.93, 673.65 385.30, 674.47 382.24 C 675.30 379.17, 674.51 378.23, 673.92 379.25 C 673.33 380.27, 672.90 382.56, 671.51 387.33 C 670.12 392.09, 669.32 396.59, 666.96 403.08 C 664.60 409.57, 663.10 413.37, 659.70 419.78 C 656.30 426.20, 654.13 429.32, 649.98 435.15 C 645.83 440.98, 643.65 444.07, 638.96 448.91 C 634.27 453.75, 631.63 455.86, 626.54 459.34 C 621.44 462.81, 618.60 464.06, 613.48 466.27 C 608.36 468.49, 605.86 469.19, 600.95 470.43 C 596.04 471.67, 593.50 471.90, 588.94 472.48 C 584.38 473.05, 582.23 472.90, 578.14 473.32 C 574.04 473.73, 572.14 473.64, 568.48 474.55 C 564.82 475.47, 563.24 475.89, 559.83 477.91 C 556.42 479.93, 554.85 481.16, 551.42 484.65 C 547.98 488.14, 546.09 490.42, 542.66 495.34 C 539.23 500.27, 537.47 503.46, 534.27 509.27 C 531.06 515.08, 529.29 518.81, 526.65 524.39 C 524.01 529.97, 522.50 533.14, 521.08 537.18 C 519.67 541.23, 519.38 542.85, 519.59 544.61 C 519.81 546.37, 520.97 546.76, 522.16 545.97 C 523.34 545.18, 524.41 543.90, 525.51 540.66 C 526.62 537.42, 526.95 534.55, 527.69 529.78 C 528.43 525.00, 528.99 522.06, 529.21 516.78 C 529.43 511.50, 529.81 508.54, 528.78 503.38 C 527.75 498.22, 526.95 495.25, 524.07 490.99 C 521.18 486.74, 519.23 484.75, 514.37 482.10 C 509.51 479.45, 506.28 478.67, 499.76 477.74 C 493.24 476.81, 489.17 476.99, 481.76 477.45 C 474.35 477.90, 470.17 479.01, 462.72 480.02 C 455.27 481.03, 450.94 481.87, 444.51 482.49 C 438.08 483.12, 434.95 483.42, 430.58 483.14 C 426.21 482.85, 424.59 481.84, 422.64 481.06 C 420.69 480.28, 420.32 480.17, 420.84 479.22 C 421.35 478.26, 422.76 477.51, 425.21 476.27 C 427.67 475.03, 429.66 473.60, 433.10 473.02 C 436.55 472.44, 439.06 472.31, 442.43 473.36 C 445.80 474.42, 447.74 475.43, 449.96 478.31 C 452.18 481.19, 453.12 483.16, 453.53 487.77 C 453.93 492.37, 453.69 495.64, 451.99 501.34 C 450.29 507.05, 448.57 510.57, 445.01 516.30 C 441.44 522.03, 438.91 525.28, 434.16 529.99 C 429.41 534.70, 426.40 536.87, 421.28 539.87 C 416.16 542.86, 413.12 543.78, 408.57 544.97 C 404.01 546.15, 401.83 546.28, 398.51 545.80 C 395.19 545.31, 393.90 544.56, 391.96 542.54 C 390.03 540.52, 389.42 539.26, 388.85 535.71 C 388.27 532.16, 388.26 529.60, 389.08 524.80 C 389.91 519.99, 390.92 516.92, 392.96 511.70 C 395.01 506.48, 396.81 503.20, 399.32 498.70 C 401.83 494.19, 403.85 492.21, 405.51 489.15 C 407.17 486.09, 407.60 484.78, 407.61 483.39 C 407.62 482.00, 406.75 481.51, 405.55 482.18" style="stroke: black; fill: black;"/><path d="M 623.25,493.57 C 624.60 494.17, 626.00 494.47, 629.94 494.25 C 633.88 494.03, 636.63 493.72, 642.95 492.48 C 649.28 491.23, 653.68 490.29, 661.57 488.04 C 669.45 485.79, 674.05 484.49, 682.39 481.22 C 690.73 477.95, 694.95 475.85, 703.27 471.69 C 711.58 467.53, 716.16 465.38, 723.97 460.42 C 731.77 455.46, 735.53 452.69, 742.28 446.89 C 749.04 441.08, 752.31 437.81, 757.74 431.38 C 763.17 424.96, 765.69 421.36, 769.43 414.78 C 773.17 408.20, 774.68 404.60, 776.42 398.49 C 778.17 392.39, 778.56 389.23, 778.16 384.25 C 777.76 379.28, 777.00 376.56, 774.44 373.63 C 771.88 370.71, 769.40 369.52, 765.36 369.61 C 761.33 369.71, 758.64 370.75, 754.28 374.10 C 749.91 377.45, 747.63 380.02, 743.54 386.36 C 739.45 392.70, 737.19 396.90, 733.83 405.80 C 730.48 414.70, 728.99 420.02, 726.76 430.85 C 724.54 441.68, 723.86 448.08, 722.72 459.94 C 721.58 471.81, 721.26 478.27, 721.08 490.19 C 720.89 502.11, 721.12 508.37, 721.80 519.54 C 722.48 530.71, 723.25 536.21, 724.48 546.05 C 725.70 555.89, 726.49 560.72, 727.93 568.73 C 729.36 576.73, 730.30 580.57, 731.65 586.05 C 733.00 591.54, 733.55 593.10, 734.69 596.14 C 735.84 599.18, 736.55 600.33, 737.39 601.24 C 738.22 602.15, 738.82 601.91, 738.86 600.69 C 738.91 599.47, 738.55 598.20, 737.61 595.14 C 736.68 592.08, 735.72 590.74, 734.19 585.38 C 732.65 580.02, 731.53 576.25, 729.94 568.34 C 728.34 560.43, 727.50 555.61, 726.19 545.83 C 724.88 536.05, 724.09 530.56, 723.38 519.44 C 722.66 508.32, 722.44 502.09, 722.62 490.22 C 722.81 478.35, 723.14 471.90, 724.32 460.10 C 725.49 448.30, 726.21 441.92, 728.51 431.22 C 730.81 420.51, 732.36 415.24, 735.81 406.56 C 739.25 397.88, 741.66 393.79, 745.75 387.82 C 749.84 381.86, 752.30 379.62, 756.24 376.72 C 760.19 373.81, 762.39 373.45, 765.49 373.31 C 768.58 373.16, 769.81 373.74, 771.72 375.99 C 773.63 378.23, 774.61 380.17, 775.05 384.53 C 775.48 388.89, 775.42 391.97, 773.89 397.80 C 772.37 403.62, 770.99 407.21, 767.44 413.66 C 763.89 420.11, 761.44 423.71, 756.15 430.05 C 750.86 436.40, 747.64 439.65, 740.99 445.39 C 734.35 451.14, 730.65 453.88, 722.92 458.78 C 715.20 463.69, 710.64 465.82, 702.38 469.90 C 694.12 473.98, 689.91 476.06, 681.61 479.18 C 673.31 482.30, 668.72 483.49, 660.88 485.51 C 653.03 487.52, 648.64 488.28, 642.39 489.26 C 636.14 490.23, 633.47 489.99, 629.63 490.38 C 625.80 490.77, 624.50 490.58, 623.23 491.21 C 621.95 491.85, 621.91 492.96, 623.25 493.57" style="stroke: black; fill: black;"/><path d="M 704.32,525.97 C 706.34 526.43, 709.07 526.18, 714.28 525.72 C 719.48 525.27, 723.24 524.76, 730.34 523.68 C 737.44 522.59, 741.80 522.07, 749.77 520.31 C 757.75 518.54, 762.23 517.30, 770.23 514.85 C 778.22 512.41, 782.36 510.90, 789.75 508.09 C 797.15 505.28, 800.80 503.68, 807.21 500.82 C 813.61 497.95, 816.75 496.49, 821.79 493.76 C 826.82 491.03, 829.29 489.81, 832.36 487.16 C 835.42 484.52, 836.77 482.87, 837.12 480.56 C 837.47 478.24, 836.49 476.12, 834.10 475.59 C 831.71 475.06, 829.28 475.66, 825.16 477.91 C 821.03 480.17, 818.21 482.49, 813.47 486.85 C 808.72 491.21, 805.81 494.15, 801.42 499.70 C 797.03 505.26, 794.49 508.97, 791.51 514.62 C 788.52 520.27, 787.37 523.37, 786.50 527.96 C 785.63 532.56, 785.75 534.59, 787.17 537.59 C 788.59 540.60, 790.30 542.00, 793.59 543.00 C 796.89 544.00, 799.33 543.64, 803.65 542.60 C 807.98 541.55, 810.52 540.48, 815.23 537.77 C 819.93 535.05, 822.75 532.98, 827.18 529.01 C 831.60 525.04, 833.82 522.54, 837.34 517.90 C 840.86 513.27, 842.39 510.65, 844.77 505.85 C 847.15 501.04, 847.97 498.55, 849.25 493.87 C 850.53 489.18, 850.57 486.75, 851.16 482.42 C 851.76 478.08, 851.76 475.96, 852.23 472.21 C 852.70 468.47, 852.75 466.78, 853.50 463.69 C 854.26 460.59, 854.37 459.60, 855.98 456.74 C 857.60 453.88, 858.51 452.64, 861.60 449.37 C 864.68 446.10, 866.83 444.31, 871.39 440.39 C 875.96 436.46, 878.75 434.30, 884.40 429.73 C 890.05 425.16, 893.31 422.57, 899.64 417.53 C 905.96 412.50, 909.64 409.71, 916.02 404.55 C 922.41 399.39, 925.86 396.64, 931.55 391.73 C 937.24 386.83, 940.20 384.46, 944.47 380.01 C 948.75 375.55, 950.73 373.37, 952.93 369.46 C 955.13 365.56, 955.83 363.38, 955.48 360.48 C 955.13 357.59, 953.94 355.84, 951.18 354.98 C 948.42 354.12, 946.10 354.17, 941.68 356.18 C 937.26 358.19, 934.46 360.27, 929.07 365.05 C 923.69 369.84, 920.51 373.06, 914.76 380.10 C 909.01 387.14, 905.65 391.57, 900.33 400.24 C 895.00 408.90, 892.20 414.12, 888.14 423.40 C 884.07 432.69, 882.49 437.70, 880.00 446.67 C 877.50 455.64, 876.41 460.22, 875.67 468.25 C 874.92 476.28, 875.09 480.23, 876.26 486.84 C 877.43 493.45, 878.66 496.41, 881.52 501.29 C 884.38 506.16, 886.35 508.23, 890.56 511.22 C 894.78 514.22, 897.46 515.27, 902.60 516.27 C 907.75 517.28, 910.76 517.13, 916.29 516.25 C 921.82 515.37, 924.84 514.31, 930.25 511.88 C 935.65 509.44, 938.40 507.60, 943.32 504.06 C 948.24 500.52, 950.79 497.88, 954.86 494.17 C 958.93 490.46, 961.18 488.25, 963.66 485.50 C 966.13 482.76, 966.79 481.25, 967.23 480.44 C 967.66 479.64, 966.48 479.70, 965.81 481.46 C 965.14 483.22, 964.58 485.42, 963.89 489.26 C 963.20 493.10, 962.52 495.94, 962.34 500.67 C 962.15 505.40, 962.07 508.24, 962.97 512.90 C 963.86 517.55, 964.72 520.05, 966.82 523.95 C 968.93 527.85, 970.25 529.73, 973.49 532.40 C 976.74 535.07, 978.97 536.15, 983.06 537.31 C 987.14 538.46, 989.42 538.72, 993.92 538.19 C 998.43 537.66, 1000.98 536.79, 1005.56 534.67 C 1010.13 532.55, 1012.44 530.99, 1016.80 527.60 C 1021.16 524.21, 1023.42 521.94, 1027.38 517.73 C 1031.34 513.52, 1033.30 510.95, 1036.61 506.57 C 1039.92 502.18, 1041.44 499.68, 1043.91 495.79 C 1046.38 491.90, 1047.58 490.04, 1048.96 487.13 C 1050.34 484.21, 1050.49 482.92, 1050.81 481.23 C 1051.14 479.54, 1050.92 478.99, 1050.57 478.68 C 1050.23 478.36, 1049.55 478.65, 1049.09 479.66 C 1048.63 480.66, 1047.99 481.74, 1048.27 483.72 C 1048.55 485.70, 1049.24 487.20, 1050.48 489.55 C 1051.71 491.90, 1052.54 493.05, 1054.45 495.45 C 1056.36 497.86, 1057.37 499.34, 1060.02 501.58 C 1062.66 503.82, 1064.37 505.08, 1067.68 506.64 C 1070.98 508.20, 1072.83 508.74, 1076.56 509.38 C 1080.28 510.02, 1082.43 510.22, 1086.29 509.85 C 1090.14 509.47, 1092.25 508.94, 1095.83 507.51 C 1099.40 506.09, 1101.29 505.05, 1104.18 502.72 C 1107.06 500.38, 1108.57 498.93, 1110.25 495.84 C 1111.94 492.75, 1112.72 490.86, 1112.61 487.28 C 1112.49 483.69, 1111.80 481.37, 1109.68 477.92 C 1107.56 474.46, 1105.77 472.82, 1102.00 469.99 C 1098.24 467.16, 1095.74 465.71, 1090.85 463.77 C 1085.96 461.83, 1083.05 461.03, 1077.55 460.29 C 1072.06 459.54, 1068.75 459.63, 1063.36 460.04 C 1057.97 460.44, 1054.90 460.82, 1050.61 462.33 C 1046.32 463.83, 1044.23 464.99, 1041.92 467.57 C 1039.60 470.16, 1038.62 472.51, 1039.03 475.28 C 1039.43 478.04, 1042.49 480.51, 1043.94 481.40 C 1045.39 482.29, 1046.43 481.06, 1046.26 479.72 C 1046.10 478.38, 1043.34 476.53, 1043.13 474.72 C 1042.91 472.91, 1043.41 472.39, 1045.18 470.66 C 1046.95 468.92, 1048.27 467.46, 1051.97 466.05 C 1055.66 464.64, 1058.63 464.06, 1063.65 463.61 C 1068.67 463.15, 1071.92 463.05, 1077.07 463.78 C 1082.22 464.51, 1084.95 465.34, 1089.42 467.25 C 1093.89 469.16, 1096.17 470.71, 1099.42 473.32 C 1102.67 475.93, 1104.04 477.50, 1105.67 480.32 C 1107.30 483.13, 1107.56 484.78, 1107.57 487.38 C 1107.59 489.98, 1107.07 491.04, 1105.75 493.31 C 1104.43 495.59, 1103.32 496.84, 1100.96 498.75 C 1098.60 500.66, 1096.99 501.65, 1093.97 502.88 C 1090.94 504.11, 1089.12 504.61, 1085.83 504.90 C 1082.53 505.19, 1080.63 504.97, 1077.48 504.35 C 1074.34 503.72, 1072.79 503.19, 1070.10 501.77 C 1067.41 500.34, 1066.04 499.27, 1064.03 497.22 C 1062.03 495.17, 1061.40 493.76, 1060.06 491.53 C 1058.73 489.30, 1058.35 488.09, 1057.36 486.06 C 1056.38 484.03, 1056.08 482.90, 1055.15 481.36 C 1054.23 479.82, 1053.84 479.17, 1052.74 478.36 C 1051.63 477.55, 1050.78 477.07, 1049.62 477.33 C 1048.46 477.59, 1047.94 478.10, 1046.94 479.66 C 1045.94 481.22, 1045.88 482.29, 1044.62 485.13 C 1043.36 487.96, 1042.78 489.95, 1040.63 493.84 C 1038.48 497.72, 1037.00 500.21, 1033.86 504.54 C 1030.73 508.86, 1028.80 511.39, 1024.96 515.45 C 1021.13 519.51, 1018.88 521.68, 1014.69 524.85 C 1010.50 528.01, 1008.27 529.40, 1004.02 531.27 C 999.78 533.14, 997.45 533.79, 993.48 534.20 C 989.52 534.61, 987.67 534.31, 984.19 533.31 C 980.72 532.31, 978.88 531.46, 976.12 529.20 C 973.36 526.95, 972.20 525.44, 970.39 522.04 C 968.58 518.63, 967.71 516.39, 967.08 512.19 C 966.45 507.98, 966.79 505.42, 967.22 501.00 C 967.66 496.58, 968.78 493.98, 969.28 490.09 C 969.78 486.20, 970.32 483.86, 969.73 481.54 C 969.15 479.21, 968.17 478.26, 966.34 478.46 C 964.51 478.65, 963.36 479.87, 960.59 482.51 C 957.81 485.15, 956.29 487.85, 952.47 491.65 C 948.64 495.45, 946.17 498.05, 941.47 501.52 C 936.77 504.99, 934.10 506.71, 928.96 509.02 C 923.82 511.32, 920.93 512.24, 915.78 513.05 C 910.63 513.87, 907.90 513.96, 903.21 513.10 C 898.51 512.23, 896.18 511.36, 892.31 508.72 C 888.44 506.08, 886.59 504.35, 883.85 499.89 C 881.11 495.42, 879.81 492.70, 878.59 486.41 C 877.36 480.12, 877.08 476.28, 877.73 468.43 C 878.37 460.58, 879.40 456.03, 881.83 447.18 C 884.25 438.32, 885.80 433.33, 889.84 424.15 C 893.88 414.97, 896.67 409.79, 902.00 401.28 C 907.34 392.76, 910.73 388.37, 916.53 381.58 C 922.33 374.79, 925.66 371.70, 931.01 367.32 C 936.36 362.94, 939.40 361.43, 943.27 359.67 C 947.14 357.90, 948.61 358.31, 950.34 358.51 C 952.07 358.71, 951.99 358.83, 951.91 360.69 C 951.83 362.54, 951.82 364.31, 949.93 367.80 C 948.05 371.29, 946.46 373.72, 942.47 378.14 C 938.48 382.56, 935.55 385.00, 929.97 389.92 C 924.39 394.85, 920.94 397.61, 914.57 402.76 C 908.21 407.90, 904.52 410.67, 898.15 415.64 C 891.78 420.61, 888.48 423.15, 882.72 427.60 C 876.96 432.05, 874.10 434.08, 869.33 437.90 C 864.56 441.72, 862.28 443.36, 858.87 446.68 C 855.45 450.01, 854.20 451.35, 852.25 454.54 C 850.30 457.72, 849.97 459.16, 849.11 462.61 C 848.26 466.05, 848.32 467.88, 847.97 471.75 C 847.61 475.62, 847.76 477.72, 847.34 481.96 C 846.93 486.21, 846.98 488.50, 845.87 492.99 C 844.77 497.48, 844.05 499.82, 841.83 504.41 C 839.61 509.00, 838.14 511.53, 834.76 515.94 C 831.38 520.35, 829.20 522.75, 824.92 526.45 C 820.64 530.14, 817.81 532.02, 813.35 534.41 C 808.90 536.80, 806.38 537.53, 802.65 538.40 C 798.92 539.27, 797.09 539.26, 794.71 538.77 C 792.32 538.27, 791.68 537.95, 790.71 535.92 C 789.75 533.88, 789.16 532.55, 789.86 528.58 C 790.56 524.60, 791.42 521.43, 794.21 516.04 C 797.00 510.65, 799.49 506.92, 803.81 501.62 C 808.14 496.33, 811.15 493.53, 815.85 489.54 C 820.54 485.55, 823.66 483.82, 827.29 481.68 C 830.92 479.55, 832.61 479.28, 834.01 478.86 C 835.41 478.44, 835.12 478.50, 834.30 479.58 C 833.48 480.67, 832.70 481.94, 829.90 484.27 C 827.11 486.60, 825.08 488.37, 820.34 491.23 C 815.59 494.09, 812.46 495.63, 806.18 498.58 C 799.90 501.53, 796.26 503.15, 788.94 505.97 C 781.62 508.79, 777.51 510.30, 769.57 512.68 C 761.63 515.06, 757.18 516.23, 749.25 517.86 C 741.33 519.50, 736.99 519.91, 729.94 520.86 C 722.88 521.80, 719.13 522.08, 713.98 522.59 C 708.83 523.10, 706.12 522.72, 704.19 523.39 C 702.25 524.07, 702.31 525.50, 704.32 525.97" style="stroke: black; fill: black;"/></svg>